<?xml version="1.0" encoding="UTF-8" standalone="no"?>
<!-- Created with Inkscape (http://www.inkscape.org/) -->

<svg
   xmlns:dc="http://purl.org/dc/elements/1.1/"
   xmlns:cc="http://creativecommons.org/ns#"
   xmlns:rdf="http://www.w3.org/1999/02/22-rdf-syntax-ns#"
   xmlns:svg="http://www.w3.org/2000/svg"
   xmlns="http://www.w3.org/2000/svg"
   xmlns:sodipodi="http://sodipodi.sourceforge.net/DTD/sodipodi-0.dtd"
   xmlns:inkscape="http://www.inkscape.org/namespaces/inkscape"
   width="744.09448819"
   height="1052.3622047"
   id="svg2"
   version="1.1"
   inkscape:version="0.48.5 r10040"
   sodipodi:docname="FractalCult.svg">
  <defs
     id="defs4" />
  <sodipodi:namedview
     id="base"
     pagecolor="#ffffff"
     bordercolor="#666666"
     borderopacity="1.0"
     inkscape:pageopacity="0.0"
     inkscape:pageshadow="2"
     inkscape:zoom="0.24748737"
     inkscape:cx="319.38639"
     inkscape:cy="549.20317"
     inkscape:document-units="px"
     inkscape:current-layer="layer1"
     showgrid="false"
     inkscape:window-width="1440"
     inkscape:window-height="900"
     inkscape:window-x="-8"
     inkscape:window-y="-8"
     inkscape:window-maximized="1" />
  <metadata
     id="metadata7">
    <rdf:RDF>
      <cc:Work
         rdf:about="">
        <dc:format>image/svg+xml</dc:format>
        <dc:type
           rdf:resource="http://purl.org/dc/dcmitype/StillImage" />
        <dc:title></dc:title>
      </cc:Work>
    </rdf:RDF>
  </metadata>
  <g
     inkscape:label="Layer 1"
     inkscape:groupmode="layer"
     id="layer1">
    <path
       style="color:#000000;fill:#00ff00;stroke:#000000;stroke-width:0.26509827;stroke-linecap:butt;stroke-linejoin:miter;stroke-miterlimit:4;stroke-opacity:1;stroke-dasharray:none;stroke-dashoffset:0;marker:none;visibility:visible;display:inline;overflow:visible;enable-background:accumulate"
       d="m -917.23484,745.66699 -176.99996,306.56261 353.99987,0 -176.99991,-306.56261 z m 58.59371,129.65622 10.5625,18.3125 -12.1562,7 -10.5625,-18.2812 12.1562,-7.0313 z m -117.21867,0.062 12.15616,7.0313 -10.56246,18.3125 -12.1562,-7 10.5625,-18.3438 z m 141.99997,42.9063 10.5937,18.3125 -12.1562,7 -10.5938,-18.2813 12.1563,-7.0312 z m -166.81247,0.062 12.1562,7.0312 -10.5625,18.2813 -12.1562,-7 10.5625,-18.3125 z m 48.09366,105.75009 21.1563,0 0,14.0312 -21.1563,0 0,-14.0312 z m 49.62505,0 21.12496,0 0,14.0312 -21.12496,0 0,-14.0312 z"
       id="path2991"
       inkscape:connector-curvature="0" />
    <path
       style="color:#000000;fill:#0000ff;stroke:#ff0000;stroke-width:0.17276245;stroke-linecap:butt;stroke-linejoin:miter;stroke-miterlimit:4;stroke-opacity:1;stroke-dasharray:none;stroke-dashoffset:0;marker:none;visibility:visible;display:inline;overflow:visible;enable-background:accumulate"
       d="m 708.65625,-175.0054 -708.5625,1227.2812 1417.12505,0 -708.56255,-1227.2812 z m -58.59375,129.781251 12.15625,7.03125 -10.59375,18.3125 -12.125,-7.03125 10.5625,-18.3125 z m 116.71875,1.0625 10.53125,18.28125 -12.15625,7 -10.5625,-18.28125 12.1875,-7 z M 625.25,-2.2553986 l 12.15625,7.03125 -10.5625,18.2812496 -12.15625,-7 10.5625,-18.3124996 z m 166.3125,1.0625 10.5625,18.2812496 -12.15625,7.03125 -10.5625,-18.3124996 12.15625,-7 z M 472.90625,261.65085 l 12.125,7 -10.5625,18.3125 -12.125,-7.03125 10.5625,-18.28125 z m 471.03125,1.03125 10.5625,18.3125 -12.1875,7.03125 -10.53125,-18.28125 12.15625,-7.0625 z m -495.84375,41.90625 12.15625,7.03125 -10.59375,18.3125 -12.125,-7 10.5625,-18.34375 z m 520.625,1.0625 10.5625,18.28125 -12.15625,7.03125 -10.5625,-18.3125 12.15625,-7 z m 153.75005,263.09375 10.5937,18.28125 -12.1563,7.03125 -10.5624,-18.28125 12.125,-7.03125 z m -825.37505,0.5625 12.1875,7.03125 -10.5625,18.3125 -12.1875,-7.03125 10.5625,-18.3125 z m 850.18745,42.40625 10.5626,18.3125 -12.1563,7 -10.5625,-18.28125 12.1562,-7.03125 z m -874.9687,0.5625 12.15625,7.03125 -10.5625,18.28125 -12.15625,-7.03125 10.5625,-18.28125 z m 1027.3437,263.3125 10.5626,18.28125 -12.1563,7.03125 -10.5625,-18.28125 12.1562,-7.03125 z m -1179.7187,0.5625 12.1875,7.03125 -10.5625,18.3125 -12.1875,-7.03125 10.5625,-18.3125 z m 1204.5,42.40625 10.5937,18.3125 -12.1562,7 -10.5938,-18.28125 12.1563,-7.03125 z M 95.125,919.15085 107.3125,926.1821 96.75,944.46335 84.5625,937.4321 95.125,919.15085 z m 755.34375,103.31255 21.125,0 0,14.0624 -21.125,0 0,-14.0624 z m 49.59375,0 21.125,0 0,14.0624 -21.125,0 0,-14.0624 z m 304.7187,0 21.125,0 0,14.0624 -21.125,0 0,-14.0624 z m 49.625,0 21.125,0 0,14.0624 -21.125,0 0,-14.0624 z m -1112.62495,1.625 21.15625,0 0,14.0312 -21.15625,0 0,-14.0312 z m 49.625,0 21.125,0 0,14.0312 -21.125,0 0,-14.0312 z m 304.71875,0 21.125,0 0,14.0312 -21.125,0 0,-14.0312 z m 49.59375,0 21.15625,0 0,14.0312 -21.15625,0 0,-14.0312 z"
       id="path3269"
       inkscape:connector-curvature="0" />
    <path
       style="color:#000000;fill:#ff0000;stroke:#ff0000;stroke-width:0.09305061;stroke-linecap:butt;stroke-linejoin:miter;stroke-miterlimit:4;stroke-opacity:1;stroke-dasharray:none;stroke-dashoffset:0;marker:none;visibility:visible;display:inline;overflow:visible;enable-background:accumulate"
       d="m -18.766095,-181.32234 -354.343695,613.68739 708.6562,0 -354.312505,-613.68739 z m -58.5937,129.812503 12.1562,7.03125 -10.5625,18.3125 -12.1562,-7.03125 10.5625,-18.3125 z m 117.1875,0.0937 10.5625,18.3125 -12.1563,7 -10.5625,-18.3125 12.1563,-7 z m -141.999995,42.875 12.1562,7.0312501 -10.5625,18.2812499 -12.1562,-7 10.5625,-18.3125 z m 166.812495,0.0937 10.5312,18.3125 -12.125,7 -10.5625,-18.3124999 12.1563,-7.0000001 z m -319.156295,263.812507 12.1563,7 -10.5625,18.3125 -12.1563,-7.0312 10.5625,-18.2813 z m 471.5,0.062 10.5625,18.3125 -12.1562,7 -10.5625,-18.2812 12.1562,-7.0313 z m -496.3125,42.875 12.1563,7.0313 -10.5625,18.3125 -12.1563,-7 10.5625,-18.3438 z m 521.125,0.094 10.5625,18.3125 -12.125,7.0312 -10.5937,-18.3437 12.1562,-7 z m -473.1875,105.78118 21.1563,0 0,14.0312 -21.1563,0 0,-14.0312 z m 49.625,0 21.125,0 0,14.0312 -21.125,0 0,-14.0312 z m 304.7188,0 21.125,0 0,14.0312 -21.125,0 0,-14.0312 z m 49.5937,0 21.1563,0 0,14.0312 -21.1563,0 0,-14.0312 z"
       id="path3128"
       inkscape:connector-curvature="0" />
    <rect
       style="color:#000000;fill:#ff0000;stroke:#ff0000;stroke-width:0.07122911;stroke-linecap:butt;stroke-linejoin:miter;stroke-miterlimit:4;stroke-opacity:1;stroke-dasharray:none;stroke-dashoffset:0;marker:none;visibility:visible;display:inline;overflow:visible;enable-background:accumulate"
       id="rect3007-4-4-7-2-1-7-5-1"
       width="21.13489"
       height="14.048254"
       x="1142.623"
       y="1529.4125" />
    <rect
       style="color:#000000;fill:#ff0000;stroke:#ff0000;stroke-width:0.07122911;stroke-linecap:butt;stroke-linejoin:miter;stroke-miterlimit:4;stroke-opacity:1;stroke-dasharray:none;stroke-dashoffset:0;marker:none;visibility:visible;display:inline;overflow:visible;enable-background:accumulate"
       id="rect3007-1-8-5-11-3-6-6-4-1"
       width="21.13489"
       height="14.048254"
       x="1192.2295"
       y="1529.4125" />
    <rect
       style="color:#000000;fill:#ff0000;stroke:#ff0000;stroke-width:0.07122911;stroke-linecap:butt;stroke-linejoin:miter;stroke-miterlimit:4;stroke-opacity:1;stroke-dasharray:none;stroke-dashoffset:0;marker:none;visibility:visible;display:inline;overflow:visible;enable-background:accumulate"
       id="rect3007-4-4-5-5-2-8-1-3-3"
       width="21.13489"
       height="14.048254"
       x="788.2923"
       y="1529.4125" />
    <rect
       style="color:#000000;fill:#ff0000;stroke:#ff0000;stroke-width:0.07122911;stroke-linecap:butt;stroke-linejoin:miter;stroke-miterlimit:4;stroke-opacity:1;stroke-dasharray:none;stroke-dashoffset:0;marker:none;visibility:visible;display:inline;overflow:visible;enable-background:accumulate"
       id="rect3007-1-8-5-1-2-2-5-8-1-8"
       width="21.13489"
       height="14.048254"
       x="837.89862"
       y="1529.4125" />
    <rect
       style="color:#000000;fill:#ff0000;stroke:#ff0000;stroke-width:0.07122911;stroke-linecap:butt;stroke-linejoin:miter;stroke-miterlimit:4;stroke-opacity:1;stroke-dasharray:none;stroke-dashoffset:0;marker:none;visibility:visible;display:inline;overflow:visible;enable-background:accumulate"
       id="rect3007-4-4-7-2-9-2-7"
       width="21.13489"
       height="14.048254"
       x="433.96161"
       y="1531.01" />
    <rect
       style="color:#000000;fill:#ff0000;stroke:#ff0000;stroke-width:0.07122911;stroke-linecap:butt;stroke-linejoin:miter;stroke-miterlimit:4;stroke-opacity:1;stroke-dasharray:none;stroke-dashoffset:0;marker:none;visibility:visible;display:inline;overflow:visible;enable-background:accumulate"
       id="rect3007-1-8-5-11-3-2-3-4"
       width="21.13489"
       height="14.048254"
       x="483.56799"
       y="1531.01" />
    <rect
       style="color:#000000;fill:#ff0000;stroke:#ff0000;stroke-width:0.07122911;stroke-linecap:butt;stroke-linejoin:miter;stroke-miterlimit:4;stroke-opacity:1;stroke-dasharray:none;stroke-dashoffset:0;marker:none;visibility:visible;display:inline;overflow:visible;enable-background:accumulate"
       id="rect3007-4-4-5-5-2-7-3-2"
       width="21.13489"
       height="14.048254"
       x="79.630867"
       y="1531.01" />
    <rect
       style="color:#000000;fill:#ff0000;stroke:#ff0000;stroke-width:0.07122911;stroke-linecap:butt;stroke-linejoin:miter;stroke-miterlimit:4;stroke-opacity:1;stroke-dasharray:none;stroke-dashoffset:0;marker:none;visibility:visible;display:inline;overflow:visible;enable-background:accumulate"
       id="rect3007-1-8-5-1-2-2-9-4-7"
       width="21.13489"
       height="14.048254"
       x="129.23732"
       y="1531.01" />
    <path
       style="color:#000000;fill:#ff0000;stroke:#ff0000;stroke-width:0.09305061;stroke-linecap:butt;stroke-linejoin:miter;stroke-miterlimit:4;stroke-opacity:1;stroke-dasharray:none;stroke-dashoffset:0;marker:none;visibility:visible;display:inline;overflow:visible;enable-background:accumulate"
       d="m -9.208804,-179.91608 354.297014,613.71433 354.3281,-613.71427 -708.625114,-6e-5 z m 83.124071,115.649878 12.16734,-7.01196 10.57784,18.30365 -12.16734,7.01195 -10.57784,-18.30364 z m 58.674903,-101.440498 21.14034,0.009 -0.016,14.02767 -21.14034,-0.009 0.016,-14.02766 z m -33.869163,144.413098 12.167343,-7.01195 10.55078,18.28802 -12.14028,7.0275802 -10.577843,-18.3036502 z m 83.487393,-144.417008 21.12469,0.036 -3.2e-4,14.00056 -21.14034,-0.009 0.016,-14.02766 z m 68.89019,408.30372 12.14033,-7.02767 10.57784,18.30365 -12.16735,7.01206 -10.55082,-18.28804 z m 235.80369,-408.29998 21.14034,0.009 -0.0159,14.02758 -21.11323,0.007 -0.0112,-14.04323 z m -211.02541,451.25673 12.16744,-7.01201 10.57784,18.30364 -12.14033,7.02767 -10.60495,-18.3193 z m 260.64391,-451.26048 21.14034,0.009 0.0267,14.01616 -21.18296,0.003 0.0159,-14.02757 z m -144.98457,462.68298 10.57815,-18.3219 12.15138,7.0156 -10.57815,18.3219 -12.15138,-7.0156 z m 24.8125,-42.97651 10.5625,-18.29479 12.15138,7.0156 -10.5625,18.29479 -12.15138,-7.0156 z m 152.3594,-263.8942318 10.5625,-18.2947802 12.15138,7.0156 -10.5625,18.2947802 -12.15138,-7.0156 z m 24.79685,-42.9494002 10.57815,-18.32189 12.15138,7.0156 -10.57815,18.32189 -12.15138,-7.0156 z"
       id="path3128-7"
       inkscape:connector-curvature="0" />
    <path
       style="color:#000000;fill:#ff0000;stroke:#ff0000;stroke-width:0.09305061;stroke-linecap:butt;stroke-linejoin:miter;stroke-miterlimit:4;stroke-opacity:1;stroke-dasharray:none;stroke-dashoffset:0;marker:none;visibility:visible;display:inline;overflow:visible;enable-background:accumulate"
       d="m 342.39685,438.61237 -708.64072,-0.027 354.328101,613.71433 354.312619,-613.68737 z m -141.71777,14.16261 -0.0111,14.04321 -21.14035,0.009 0.0111,-14.0432 21.14035,-0.009 z m 58.5126,101.5342 -10.57784,18.30365 -12.14033,-7.02766 10.57784,-18.30365 12.14033,7.02766 z m -108.13084,-101.5381 -0.0111,14.0432 -21.11328,-0.007 -0.0159,-14.02758 21.14034,-0.009 z m 83.32511,144.51071 -10.5935,18.27654 -12.12468,-7.00056 10.57784,-18.30364 12.14034,7.02766 z m -388.04649,-144.4912 0.016,14.02766 -21.14034,0.009 0.011,-14.04326 21.11333,0.007 z m 235.696301,408.36197 -10.57784,18.30364 -12.14027,-7.02758 10.55073,-18.28798 12.16738,7.01192 z m -285.287081,-408.38174 -0.0112,14.04332 -21.14033,0.009 -0.016,-14.02765 21.16745,-0.0245 z m 260.481081,451.3545 -10.57784,18.30359 -12.1517,-6.98491 10.58927,-18.34626 12.14027,7.02758 z m -328.202931,-356.90181 10.57815,18.32189 -12.15138,7.0156 -10.57815,-18.32189 12.15138,-7.0156 z m 24.8125,42.97651 10.5625,18.29479 -12.15138,7.0156 -10.5625,-18.29479 12.15138,-7.0156 z m 152.3594,263.89422 10.5625,18.29479 -12.15138,7.0156 -10.5625,-18.29478 12.15138,-7.01561 z m 24.796851,42.94941 10.57814,18.32189 -12.15136,7.01557 -10.578161,-18.32186 12.151381,-7.0156 z"
       id="path3128-9"
       inkscape:connector-curvature="0" />
    <path
       style="color:#000000;fill:#ff0000;stroke:#ff0000;stroke-width:0.09305061;stroke-linecap:butt;stroke-linejoin:miter;stroke-miterlimit:4;stroke-opacity:1;stroke-dasharray:none;stroke-dashoffset:0;marker:none;visibility:visible;display:inline;overflow:visible;enable-background:accumulate"
       d="m -376.04541,438.61232 -354.34369,613.68738 708.656186,0 -354.312496,-613.68738 z m -58.5937,129.8125 12.1562,7.03125 -10.5625,18.3125 -12.1562,-7.03125 10.5625,-18.3125 z m 117.1875,0.0937 10.5625,18.3125 -12.1563,7 -10.5625,-18.3125 12.1563,-7 z m -142,42.875 12.1562,7.03125 -10.5625,18.28125 -12.1562,-7 10.5625,-18.3125 z m 166.8125,0.0937 10.5312,18.3125 -12.125,7 -10.5625,-18.3125 12.1563,-7 z m -319.1563,263.81251 12.1563,7 -10.5625,18.3125 -12.15629,-7.0312 10.56249,-18.2813 z m 471.5,0.062 10.5625,18.3125 -12.1562,7 -10.5625,-18.2812 12.1562,-7.0313 z m -496.31249,42.875 12.1563,7.0313 -10.5625,18.3125 -12.1563,-7 10.5625,-18.3438 z m 521.12499,0.094 10.5625,18.3125 -12.125,7.0312 -10.5937,-18.3437 12.1562,-7 z m -473.1875,105.78117 21.1563,0 0,14.0312 -21.1563,0 0,-14.0312 z m 49.625,0 21.125,0 0,14.0312 -21.125,0 0,-14.0312 z m 304.7188,0 21.125,0 0,14.0312 -21.125,0 0,-14.0312 z m 49.5937,0 21.1563,0 0,14.0312 -21.1563,0 0,-14.0312 z"
       id="path3128-3"
       inkscape:connector-curvature="0"
       inkscape:transform-center-x="488.91383"
       inkscape:transform-center-y="-238.396" />
    <path
       style="color:#000000;fill:#00ff00;stroke:#000000;stroke-width:0.26509827;stroke-linecap:butt;stroke-linejoin:miter;stroke-miterlimit:4;stroke-opacity:1;stroke-dasharray:none;stroke-dashoffset:0;marker:none;visibility:visible;display:inline;overflow:visible;enable-background:accumulate"
       d="m -557.89135,745.66164 -353.99101,-0.005 176.99992,306.57296 176.99109,-306.56786 z m -82.98873,115.57176 -10.57784,18.30364 -12.14028,-7.02758 10.55073,-18.28799 12.16739,7.01193 z m -58.66301,-101.48332 -0.0112,14.04315 -21.14029,0.009 -0.0159,-14.02758 21.16745,-0.0245 z m 33.84202,144.4287 -10.56224,18.33066 -12.14028,-7.02757 10.53517,-18.31515 12.16735,7.01206 z m -83.45991,-144.4328 -0.0111,14.04318 -21.11332,-0.007 -0.0159,-14.02757 21.14034,-0.009 z m -67.53549,94.52536 10.57815,18.32189 -12.15137,7.0156 -10.57815,-18.32189 12.15137,-7.0156 z m 24.81253,42.97655 10.56248,18.29476 -12.15138,7.0156 -10.56248,-18.29476 12.15138,-7.0156 z"
       id="path2991-1"
       inkscape:connector-curvature="0" />
    <path
       style="color:#000000;fill:#00ff00;stroke:#000000;stroke-width:0.26509827;stroke-linecap:butt;stroke-linejoin:miter;stroke-miterlimit:4;stroke-opacity:1;stroke-dasharray:none;stroke-dashoffset:0;marker:none;visibility:visible;display:inline;overflow:visible;enable-background:accumulate"
       d="m -736.02891,434.51463 -176.99999,306.56256 353.9999,0 -176.99991,-306.56256 z m 58.59371,129.65622 10.5625,18.3125 -12.1562,7 -10.5625,-18.2812 12.1562,-7.0313 z m -117.2187,0.062 12.1562,7.0313 -10.5625,18.3125 -12.1562,-7 10.5625,-18.3438 z m 142,42.9063 10.5937,18.3125 -12.1562,7 -10.5938,-18.2813 12.1563,-7.0312 z m -166.8125,0.062 12.1562,7.0312 -10.5625,18.2813 -12.1562,-7 10.5625,-18.3125 z m 48.0937,105.75009 21.1563,0 0,14.03115 -21.1563,0 0,-14.03115 z m 49.62504,0 21.12496,0 0,14.03115 -21.12496,0 0,-14.03115 z"
       id="path2991-8"
       inkscape:connector-curvature="0" />
    <path
       style="color:#000000;fill:#00ff00;stroke:#000000;stroke-width:0.26509827;stroke-linecap:butt;stroke-linejoin:miter;stroke-miterlimit:4;stroke-opacity:1;stroke-dasharray:none;stroke-dashoffset:0;marker:none;visibility:visible;display:inline;overflow:visible;enable-background:accumulate"
       d="m -378.68542,432.50928 -353.99101,-0.005 176.99992,306.57291 176.99109,-306.56781 z m -82.98873,115.57176 -10.57784,18.30364 -12.14028,-7.02758 10.55073,-18.28799 12.16739,7.01193 z m -58.66301,-101.48332 -0.0112,14.04315 -21.14029,0.009 -0.0159,-14.02758 21.16745,-0.0245 z m 33.84202,144.4287 -10.56224,18.33066 -12.14028,-7.02757 10.53517,-18.31515 12.16735,7.01206 z m -83.45991,-144.4328 -0.0111,14.04318 -21.11332,-0.007 -0.0159,-14.02757 21.14034,-0.009 z m -67.53549,94.52536 10.57815,18.32189 -12.15137,7.0156 -10.57815,-18.32189 12.15137,-7.0156 z m 24.81253,42.97655 10.56248,18.29476 -12.15138,7.0156 -10.56248,-18.29476 12.15138,-7.0156 z"
       id="path2991-1-6"
       inkscape:connector-curvature="0" />
    <path
       style="color:#000000;fill:#00ff00;stroke:#000000;stroke-width:0.26509827;stroke-linecap:butt;stroke-linejoin:miter;stroke-miterlimit:4;stroke-opacity:1;stroke-dasharray:none;stroke-dashoffset:0;marker:none;visibility:visible;display:inline;overflow:visible;enable-background:accumulate"
       d="m -558.57178,120.24067 -176.99996,306.56261 353.99987,0 -176.99991,-306.56261 z m 58.59371,129.65622 10.5625,18.3125 -12.1562,7 -10.5625,-18.2812 12.1562,-7.0313 z m -117.21867,0.062 12.15616,7.0313 -10.56246,18.3125 -12.1562,-7 10.5625,-18.3438 z m 141.99997,42.9063 10.5937,18.3125 -12.1562,7 -10.5938,-18.2813 12.1563,-7.0312 z m -166.81247,0.062 12.1562,7.0312 -10.5625,18.2813 -12.1562,-7 10.5625,-18.3125 z m 48.09366,105.75009 21.1563,0 0,14.0312 -21.1563,0 0,-14.0312 z m 49.62505,0 21.12496,0 0,14.0312 -21.12496,0 0,-14.0312 z"
       id="path2991-0"
       inkscape:connector-curvature="0" />
    <path
       style="color:#000000;fill:#00ff00;stroke:#000000;stroke-width:0.26509827;stroke-linecap:butt;stroke-linejoin:miter;stroke-miterlimit:4;stroke-opacity:1;stroke-dasharray:none;stroke-dashoffset:0;marker:none;visibility:visible;display:inline;overflow:visible;enable-background:accumulate"
       d="m -199.22829,120.23532 -353.99101,-0.005 176.99992,306.57296 176.99109,-306.56786 z m -82.98873,115.57176 -10.57784,18.30364 -12.14028,-7.02758 10.55073,-18.28799 12.16739,7.01193 z m -58.66301,-101.48332 -0.0112,14.04315 -21.14029,0.009 -0.0159,-14.02758 21.16745,-0.0245 z m 33.84202,144.4287 -10.56224,18.33066 -12.14028,-7.02757 10.53517,-18.31515 12.16735,7.01206 z m -83.45991,-144.4328 -0.0111,14.04318 -21.11332,-0.007 -0.0159,-14.02757 21.14034,-0.009 z m -67.53549,94.52536 10.57815,18.32189 -12.15137,7.0156 -10.57815,-18.32189 12.15137,-7.0156 z m 24.81253,42.97655 10.56248,18.29476 -12.15138,7.0156 -10.56248,-18.29476 12.15138,-7.0156 z"
       id="path2991-1-2"
       inkscape:connector-curvature="0" />
    <path
       style="color:#000000;fill:#00ff00;stroke:#000000;stroke-width:0.26509827;stroke-linecap:butt;stroke-linejoin:miter;stroke-miterlimit:4;stroke-opacity:1;stroke-dasharray:none;stroke-dashoffset:0;marker:none;visibility:visible;display:inline;overflow:visible;enable-background:accumulate"
       d="m -377.36585,-190.91169 -176.99999,306.56256 353.9999,0 -176.99991,-306.56256 z m 58.59371,129.656222 10.5625,18.312499 -12.1562,7 -10.5625,-18.281199 12.1562,-7.0313 z m -117.2187,0.062 12.1562,7.0313 -10.5625,18.312499 -12.1562,-7 10.5625,-18.343799 z m 142,42.906299 10.5937,18.3125003 -12.1562,7 -10.5938,-18.2813003 12.1563,-7.0312 z m -166.8125,0.062 12.1562,7.0312 -10.5625,18.2813003 -12.1562,-7 10.5625,-18.3125003 z m 48.0937,105.75009 21.1563,0 0,14.031149 -21.1563,0 0,-14.031149 z m 49.62504,0 21.12496,0 0,14.031149 -21.12496,0 0,-14.031149 z"
       id="path2991-8-4"
       inkscape:connector-curvature="0" />
    <path
       style="color:#000000;fill:#00ff00;stroke:#000000;stroke-width:0.26509827;stroke-linecap:butt;stroke-linejoin:miter;stroke-miterlimit:4;stroke-opacity:1;stroke-dasharray:none;stroke-dashoffset:0;marker:none;visibility:visible;display:inline;overflow:visible;enable-background:accumulate"
       d="m -20.022361,-192.91704 -353.991009,-0.005 176.99992,306.57291 176.991089,-306.56781 z m -82.988729,115.571762 -10.57784,18.30364 -12.14028,-7.02758 10.55073,-18.28799 12.16739,7.01193 z m -58.66301,-101.483322 -0.0112,14.04315 -21.14029,0.009 -0.0159,-14.02758 21.16745,-0.0245 z m 33.84202,144.428701 -10.56224,18.33066 -12.14028,-7.02757 10.53517,-18.31515 12.16735,7.01206 z m -83.45991,-144.432801 -0.0111,14.04318 -21.11332,-0.007 -0.0159,-14.02757 21.14034,-0.009 z m -67.53549,94.525362 10.57815,18.32189 -12.15137,7.0156 -10.57815,-18.32189 12.15137,-7.0156 z m 24.81253,42.976549 10.56248,18.29476 -12.15138,7.0156 -10.56248,-18.29476 12.15138,-7.0156 z"
       id="path2991-1-6-8"
       inkscape:connector-curvature="0" />
    <path
       style="color:#000000;fill:#00ff00;stroke:#000000;stroke-width:0.26509827;stroke-linecap:butt;stroke-linejoin:miter;stroke-miterlimit:4;stroke-opacity:1;stroke-dasharray:none;stroke-dashoffset:0;marker:none;visibility:visible;display:inline;overflow:visible;enable-background:accumulate"
       d="m -743.94456,432.94848 -353.99104,-0.005 176.99995,306.57297 176.99109,-306.56787 z m -82.98873,115.57177 -10.57784,18.3036 -12.14028,-7.0276 10.55073,-18.2879 12.16739,7.0119 z m -58.66301,-101.48333 -0.0112,14.04315 -21.14029,0.009 -0.0159,-14.02758 21.16745,-0.0245 z m 33.84202,144.42873 -10.56224,18.3306 -12.14028,-7.0275 10.53517,-18.3152 12.16735,7.0121 z m -83.45991,-144.43283 -0.0111,14.04318 -21.11332,-0.007 -0.0159,-14.02757 21.14034,-0.009 z m -67.53551,94.52533 10.57817,18.3219 -12.15137,7.0156 -10.5782,-18.3219 12.1514,-7.0156 z m 24.81255,42.9766 10.56248,18.2947 -12.15138,7.0156 -10.56248,-18.2947 12.15138,-7.0156 z"
       id="path2991-1-65"
       inkscape:connector-curvature="0" />
    <path
       style="color:#000000;fill:#00ff00;stroke:#000000;stroke-width:0.26509827;stroke-linecap:butt;stroke-linejoin:miter;stroke-miterlimit:4;stroke-opacity:1;stroke-dasharray:none;stroke-dashoffset:0;marker:none;visibility:visible;display:inline;overflow:visible;enable-background:accumulate"
       d="m -922.08212,121.80147 -176.99998,306.56256 353.99989,0 -176.99991,-306.56256 z m 58.59371,129.65622 10.5625,18.3125 -12.1562,7 -10.5625,-18.2812 12.1562,-7.0313 z m -117.2187,0.062 12.1562,7.0313 -10.5625,18.3125 -12.1562,-7 10.5625,-18.3438 z m 142,42.9063 10.5937,18.3125 -12.1562,7 -10.5938,-18.2813 12.1563,-7.0312 z m -166.81249,0.062 12.15619,7.0312 -10.56249,18.2813 -12.1562,-7 10.5625,-18.3125 z m 48.09369,105.75009 21.1563,0 0,14.03115 -21.1563,0 0,-14.03115 z m 49.62504,0 21.12496,0 0,14.03115 -21.12496,0 0,-14.03115 z"
       id="path2991-8-0"
       inkscape:connector-curvature="0" />
    <path
       style="color:#000000;fill:#00ff00;stroke:#000000;stroke-width:0.26509827;stroke-linecap:butt;stroke-linejoin:miter;stroke-miterlimit:4;stroke-opacity:1;stroke-dasharray:none;stroke-dashoffset:0;marker:none;visibility:visible;display:inline;overflow:visible;enable-background:accumulate"
       d="m -564.73863,119.79612 -353.99101,-0.005 176.99992,306.57291 176.99109,-306.56781 z m -82.98873,115.57176 -10.57784,18.30364 -12.14028,-7.02758 10.55073,-18.28799 12.16739,7.01193 z m -58.66301,-101.48332 -0.0112,14.04315 -21.14029,0.009 -0.0159,-14.02758 21.16745,-0.0245 z m 33.84202,144.4287 -10.56224,18.33066 -12.14028,-7.02757 10.53517,-18.31515 12.16735,7.01206 z m -83.45991,-144.4328 -0.0111,14.04318 -21.11332,-0.007 -0.0159,-14.02757 21.14034,-0.009 z m -67.53549,94.52536 10.57815,18.32189 -12.15137,7.0156 -10.57815,-18.32189 12.15137,-7.0156 z m 24.81253,42.97655 10.56248,18.29476 -12.15138,7.0156 -10.56248,-18.29476 12.15138,-7.0156 z"
       id="path2991-1-6-9"
       inkscape:connector-curvature="0" />
    <path
       style="color:#000000;fill:#00ff00;stroke:#000000;stroke-width:0.26509827;stroke-linecap:butt;stroke-linejoin:miter;stroke-miterlimit:4;stroke-opacity:1;stroke-dasharray:none;stroke-dashoffset:0;marker:none;visibility:visible;display:inline;overflow:visible;enable-background:accumulate"
       d="m -744.62499,-192.47249 -176.99996,306.56261 353.99987,0 -176.99991,-306.56261 z m 58.59371,129.656217 10.5625,18.3125 -12.1562,7 -10.5625,-18.2812 12.1562,-7.0313 z m -117.21867,0.062 12.15616,7.0313 -10.56246,18.3125 -12.1562,-7 10.5625,-18.3438 z m 141.99997,42.9063 10.5937,18.3124999 -12.1562,7 -10.5938,-18.2812999 12.1563,-7.0312 z m -166.81247,0.062 12.1562,7.0312 -10.5625,18.2812999 -12.1562,-7 10.5625,-18.3124999 z m 48.09366,105.750089 21.1563,0 0,14.031204 -21.1563,0 0,-14.031204 z m 49.62505,0 21.12496,0 0,14.031204 -21.12496,0 0,-14.031204 z"
       id="path2991-0-0"
       inkscape:connector-curvature="0" />
    <path
       style="color:#000000;fill:#00ff00;stroke:#000000;stroke-width:0.26509827;stroke-linecap:butt;stroke-linejoin:miter;stroke-miterlimit:4;stroke-opacity:1;stroke-dasharray:none;stroke-dashoffset:0;marker:none;visibility:visible;display:inline;overflow:visible;enable-background:accumulate"
       d="m -385.2815,-192.47784 -353.99101,-0.005 176.99992,306.57296 176.99109,-306.56786 z m -82.98873,115.571757 -10.57784,18.30364 -12.14028,-7.02758 10.55073,-18.28799 12.16739,7.01193 z m -58.66301,-101.483317 -0.0112,14.04315 -21.14029,0.009 -0.0159,-14.02758 21.16745,-0.0245 z m 33.84202,144.428697 -10.56224,18.33066 -12.14028,-7.02757 10.53517,-18.31515 12.16735,7.01206 z m -83.45991,-144.432797 -0.0111,14.04318 -21.11332,-0.007 -0.0159,-14.02757 21.14034,-0.009 z m -67.53549,94.525357 10.57815,18.32189 -12.15137,7.0156 -10.57815,-18.32189 12.15137,-7.0156 z m 24.81253,42.97655 10.56248,18.29476 -12.15138,7.0156 -10.56248,-18.29476 12.15138,-7.0156 z"
       id="path2991-1-2-0"
       inkscape:connector-curvature="0" />
    <path
       style="color:#000000;fill:#00ff00;stroke:#000000;stroke-width:0.26509827;stroke-linecap:butt;stroke-linejoin:miter;stroke-miterlimit:4;stroke-opacity:1;stroke-dasharray:none;stroke-dashoffset:0;marker:none;visibility:visible;display:inline;overflow:visible;enable-background:accumulate"
       d="m -746.2675,-195.55903 -353.991,-0.005 176.99991,306.57296 176.99109,-306.56786 z m -82.98873,115.571755 -10.57784,18.30364 -12.14028,-7.02758 10.55073,-18.28799 12.16739,7.01193 z m -58.66301,-101.483315 -0.0112,14.04315 -21.14029,0.009 -0.0159,-14.02758 21.16745,-0.0245 z m 33.84202,144.428695 -10.56224,18.33066 -12.14028,-7.02757 10.53517,-18.31515 12.16735,7.01206 z m -83.45991,-144.432795 -0.0111,14.04318 -21.11332,-0.007 -0.0159,-14.02757 21.14034,-0.009 z m -67.53547,94.525355 10.5781,18.32189 -12.1513,7.0156 -10.5782,-18.32189 12.1514,-7.0156 z m 24.81251,42.97655 10.56248,18.29476 -12.15138,7.0156 -10.56251,-18.29476 12.15141,-7.0156 z"
       id="path2991-1-2-0-3"
       inkscape:connector-curvature="0" />
    <path
       style="color:#000000;fill:#00ff00;stroke:#000000;stroke-width:0.26509827;stroke-linecap:butt;stroke-linejoin:miter;stroke-miterlimit:4;stroke-opacity:1;stroke-dasharray:none;stroke-dashoffset:0;marker:none;visibility:visible;display:inline;overflow:visible;enable-background:accumulate"
       d="m 883.83757,117.13212 177.00423,-306.5602 -354.00003,-9e-5 177.0001,306.56274 z m -58.5938,-129.656217 -10.5624,-18.31244 12.1562,-7.00001 10.5625,18.28117 -12.1563,7.03128 z m 117.2187,-0.062 -12.1562,-7.03108 10.5615,-18.31303 12.1562,6.99994 -10.5629,18.34359 z m -142,-42.90632 -10.5936,-18.31243 12.1562,-7.00001 10.5937,18.2813 -12.1563,7.03114 z m 166.8125,-0.062 -12.1563,-7.03113 10.5653,-18.27965 12.1563,6.99994 -10.5615,18.31304 z m -48.0936,-105.750113 -21.1563,4e-5 0,-14.03122 21.1563,-4e-5 0,14.03122 z m -49.6251,-4e-5 -21.1249,4e-5 0,-14.03122 21.1249,4e-5 0,14.03114 z"
       id="path2991-1-60"
       inkscape:connector-curvature="0" />
    <path
       style="color:#000000;fill:#00ff00;stroke:#000000;stroke-width:0.26509827;stroke-linecap:butt;stroke-linejoin:miter;stroke-miterlimit:4;stroke-opacity:1;stroke-dasharray:none;stroke-dashoffset:0;marker:none;visibility:visible;display:inline;overflow:visible;enable-background:accumulate"
       d="m 1242.3675,118.43401 -176.9909,-306.56778 -177.00003,306.5729 353.99093,-0.005 z m -141.5824,-14.08448 -21.1403,-0.009 0.016,-14.027577 21.1132,-0.007 0.011,14.043227 z m 58.5557,-101.5453667 -12.1674,7.01192 -10.5779,-18.3036398 12.1403,-7.0275805 10.605,18.3193003 z m -108.158,101.5224467 -21.1559,0.0182 0.016,-14.027577 21.129,-0.0338 0.011,14.043257 z m 83.3526,-144.494857 -12.1673,7.01198 -10.5508,-18.28804 12.1402,-7.02758 10.5779,18.30364 z m -115.6291,-11.22468 -10.5782,18.3219 -12.1513,-7.01558 10.5781,-18.3219 12.1514,7.01558 z m -24.8125,42.9765105 -10.56253,18.2947898 -12.1514,-7.01558 10.5625,-18.2947903 12.15143,7.0155805 z"
       id="path2991-8-6"
       inkscape:connector-curvature="0" />
    <path
       style="color:#000000;fill:#00ff00;stroke:#000000;stroke-width:0.26509827;stroke-linecap:butt;stroke-linejoin:miter;stroke-miterlimit:4;stroke-opacity:1;stroke-dasharray:none;stroke-dashoffset:0;marker:none;visibility:visible;display:inline;overflow:visible;enable-background:accumulate"
       d="m 1065.4325,428.90523 176.9998,-306.5627 -353.99993,-5e-5 177.00003,306.5627 z m -58.5937,-129.65629 -10.5625,-18.31246 12.1562,-7.00002 10.5625,18.28117 -12.1562,7.03131 z m 117.2186,-0.062 -12.1562,-7.0311 10.5624,-18.31253 12.1562,6.99993 -10.5625,18.34384 z m -141.99993,-42.90632 -10.5937,-18.31246 12.1562,-7.00002 10.59383,18.28132 -12.15633,7.03116 z m 166.81243,-0.062 -12.1562,-7.03112 10.5627,-18.28115 12.1562,6.99993 -10.5624,18.31262 z m -48.0936,-105.75014 -21.1563,5e-5 0,-14.03122 21.1563,4e-5 0,14.03113 z m -49.6251,7e-5 -21.1249,1e-5 0,-14.03122 21.1249,-1e-5 0,14.03122 z"
       id="path2991-1-6-6"
       inkscape:connector-curvature="0" />
    <path
       style="color:#000000;fill:#00ff00;stroke:#000000;stroke-width:0.26509827;stroke-linecap:butt;stroke-linejoin:miter;stroke-miterlimit:4;stroke-opacity:1;stroke-dasharray:none;stroke-dashoffset:0;marker:none;visibility:visible;display:inline;overflow:visible;enable-background:accumulate"
       d="m 1425.8082,429.25334 -176.991,-306.5678 -176.9999,306.57291 353.9909,-0.005 z m -141.5824,-14.08447 -21.1403,-0.009 0.016,-14.02758 21.1132,-0.007 0.011,14.04323 z m 58.5556,-101.54538 -12.1673,7.01193 -10.5779,-18.30364 12.1403,-7.02758 10.6049,18.31929 z m -108.1579,101.52246 -21.1559,0.0182 0.016,-14.02758 21.129,-0.0339 0.011,14.04327 z m 83.3526,-144.49486 -12.1673,7.01198 -10.5509,-18.28805 12.1403,-7.02757 10.5779,18.30364 z m -115.6292,-11.22468 -10.5781,18.32189 -12.1514,-7.0156 10.5782,-18.32189 12.1513,7.0156 z m -24.8125,42.9766 -10.5625,18.2947 -12.1513,-7.0156 10.5624,-18.2947 12.1514,7.0156 z"
       id="path2991-0-1"
       inkscape:connector-curvature="0" />
    <path
       style="color:#000000;fill:#00ff00;stroke:#000000;stroke-width:0.26509827;stroke-linecap:butt;stroke-linejoin:miter;stroke-miterlimit:4;stroke-opacity:1;stroke-dasharray:none;stroke-dashoffset:0;marker:none;visibility:visible;display:inline;overflow:visible;enable-background:accumulate"
       d="m 1246.1411,740.45662 176.9998,-306.5627 -353.9999,-7e-5 177,306.56272 z m -58.5937,-129.6562 -10.5625,-18.31255 12.1562,-7.00002 10.5625,18.28125 -12.1562,7.03132 z m 117.2186,-0.062 -12.1562,-7.0311 10.5623,-18.31254 12.1563,6.99993 -10.5625,18.34376 z m -141.9999,-42.90632 -10.5937,-18.31255 12.1562,-6.99994 10.5938,18.28124 -12.1563,7.03125 z m 166.8124,-0.062 -12.1562,-7.03112 10.5627,-18.28124 12.1563,6.99993 -10.5625,18.31262 z m -48.0936,-105.75014 -21.1563,-5e-5 0,-14.03113 21.1563,-4e-5 0,14.03122 z m -49.625,-2e-5 -21.125,10e-6 0,-14.03122 21.125,-10e-6 0,14.03122 z"
       id="path2991-1-2-8"
       inkscape:connector-curvature="0" />
    <path
       style="color:#000000;fill:#00ff00;stroke:#000000;stroke-width:0.26509827;stroke-linecap:butt;stroke-linejoin:miter;stroke-miterlimit:4;stroke-opacity:1;stroke-dasharray:none;stroke-dashoffset:0;marker:none;visibility:visible;display:inline;overflow:visible;enable-background:accumulate"
       d="m 1604.6711,741.75844 -176.9909,-306.56778 -177,306.57291 353.9909,-0.005 z m -141.5824,-14.08448 -21.1403,-0.009 0.016,-14.02758 21.1132,-0.007 0.011,14.04323 z m 58.5556,-101.54537 -12.1673,7.01192 -10.5779,-18.30364 12.1403,-7.02758 10.6049,18.3193 z m -108.1579,101.52245 -21.1559,0.0182 0.016,-14.02758 21.129,-0.0339 0.011,14.04326 z m 83.3526,-144.49486 -12.1673,7.01198 -10.5509,-18.28804 12.1403,-7.02758 10.5779,18.30364 z m -115.6292,-11.22468 -10.5781,18.3219 -12.1513,-7.01558 10.5781,-18.32189 12.1513,7.01557 z m -24.8125,42.9766 -10.5625,18.2947 -12.1513,-7.01558 10.5625,-18.2947 12.1513,7.01558 z"
       id="path2991-8-4-4"
       inkscape:connector-curvature="0" />
    <path
       style="color:#000000;fill:#00ff00;stroke:#000000;stroke-width:0.26509827;stroke-linecap:butt;stroke-linejoin:miter;stroke-miterlimit:4;stroke-opacity:1;stroke-dasharray:none;stroke-dashoffset:0;marker:none;visibility:visible;display:inline;overflow:visible;enable-background:accumulate"
       d="m 1427.7361,1052.2296 176.9998,-306.56264 -353.9999,-4e-5 177,306.56268 z m -58.5938,-129.65614 -10.5625,-18.31247 12.1562,-7.00001 10.5625,18.28116 -12.1562,7.03132 z m 117.2187,-0.062 -12.1563,-7.0311 10.5624,-18.31254 12.1562,6.99993 -10.5625,18.34376 z m -142,-42.90632 -10.5937,-18.31246 12.1562,-7.00003 10.5938,18.28133 -12.1563,7.03116 z m 166.8125,-0.062 -12.1563,-7.03112 10.5627,-18.28115 12.1563,6.99993 -10.5624,18.31253 z m -48.0937,-105.75014 -21.1563,4e-5 0,-14.03122 21.1564,-4e-5 -10e-5,14.03122 z m -49.625,-2e-5 -21.125,1e-5 0,-14.03122 21.125,7e-5 0,14.03114 z"
       id="path2991-1-6-8-9"
       inkscape:connector-curvature="0" />
    <path
       style="color:#000000;fill:#00ff00;stroke:#000000;stroke-width:0.26509827;stroke-linecap:butt;stroke-linejoin:miter;stroke-miterlimit:4;stroke-opacity:1;stroke-dasharray:none;stroke-dashoffset:0;marker:none;visibility:visible;display:inline;overflow:visible;enable-background:accumulate"
       d="m 1247.6817,112.36188 176.9998,-306.56269 -353.9998,-5e-5 176.9999,306.56269 z m -58.5937,-129.656197 -10.5625,-18.31245 12.1562,-7.00001 10.5625,18.28113 -12.1562,7.03133 z m 117.2186,-0.062 -12.1562,-7.0311 10.5624,-18.31253 12.1562,6.99993 -10.5625,18.34376 z m -141.9999,-42.90633 -10.5937,-18.31243 12.1561,-7.00006 10.5939,18.28135 -12.1563,7.03114 z m 166.8124,-0.062 -12.1562,-7.03111 10.5627,-18.28116 12.1562,6.99993 -10.5623,18.31254 z m -48.0936,-105.750123 -21.1563,4e-5 0,-14.03122 21.1563,-4e-5 0,14.03122 z m -49.625,-5e-5 -21.125,5e-5 0,-14.03122 21.1249,4e-5 10e-5,14.03113 z"
       id="path2991-1-65-6"
       inkscape:connector-curvature="0" />
    <path
       style="color:#000000;fill:#00ff00;stroke:#000000;stroke-width:0.26509827;stroke-linecap:butt;stroke-linejoin:miter;stroke-miterlimit:4;stroke-opacity:1;stroke-dasharray:none;stroke-dashoffset:0;marker:none;visibility:visible;display:inline;overflow:visible;enable-background:accumulate"
       d="m 1606.2117,113.66379 -176.991,-306.56778 -176.9999,306.57291 353.9909,-0.005 z m -141.5824,-14.084477 -21.1404,-0.009 0.016,-14.02757 21.1133,-0.007 0.011,14.04323 z m 58.5556,-101.5453695 -12.1674,7.0119298 -10.5778,-18.3036503 12.1403,-7.02757 10.6049,18.3192905 z M 1415.027,99.556403 l -21.156,0.0182 0.016,-14.02758 21.129,-0.0338 0.011,14.04327 z m 83.3525,-144.49487 -12.1673,7.01198 -10.5508,-18.28804 12.1403,-7.02758 10.5778,18.30364 z m -115.6291,-11.22467 -10.5781,18.32189 -12.1514,-7.01558 10.5782,-18.32189 12.1513,7.01558 z m -24.8125,42.97651 -10.5625,18.2947803 -12.1513,-7.0155698 10.5625,-18.2947905 12.1513,7.01558 z"
       id="path2991-8-0-3"
       inkscape:connector-curvature="0" />
    <path
       style="color:#000000;fill:#00ff00;stroke:#000000;stroke-width:0.26509827;stroke-linecap:butt;stroke-linejoin:miter;stroke-miterlimit:4;stroke-opacity:1;stroke-dasharray:none;stroke-dashoffset:0;marker:none;visibility:visible;display:inline;overflow:visible;enable-background:accumulate"
       d="m 1429.2766,424.13501 176.9999,-306.56278 -353.9999,4e-5 176.9999,306.56269 z m -58.5937,-129.65629 -10.5625,-18.31246 12.1562,-7.00002 10.5625,18.28117 -12.1562,7.03131 z m 117.2187,-0.062 -12.1563,-7.03111 10.5624,-18.31253 12.1562,6.99993 -10.5625,18.34384 z m -142,-42.90632 -10.5937,-18.31247 12.1562,-7.00002 10.5938,18.28133 -12.1563,7.03116 z m 166.8125,-0.062 -12.1563,-7.03111 10.5627,-18.28116 12.1563,6.99993 -10.5624,18.31254 z m -48.0936,-105.75014 -21.1564,5e-5 0,-14.03122 21.1563,4e-5 10e-5,14.03113 z m -49.6251,7e-5 -21.125,-7e-5 0,-14.03114 21.125,-1e-5 0,14.03122 z"
       id="path2991-1-6-9-7"
       inkscape:connector-curvature="0" />
    <path
       style="color:#000000;fill:#00ff00;stroke:#000000;stroke-width:0.26509827;stroke-linecap:butt;stroke-linejoin:miter;stroke-miterlimit:4;stroke-opacity:1;stroke-dasharray:none;stroke-dashoffset:0;marker:none;visibility:visible;display:inline;overflow:visible;enable-background:accumulate"
       d="m 1789.6524,424.48313 -176.991,-306.56781 -177,306.57291 353.991,-0.005 z m -141.5825,-14.08448 -21.1403,-0.009 0.016,-14.02758 21.1132,-0.007 0.011,14.04323 z m 58.5557,-101.54537 -12.1674,7.01192 -10.5778,-18.30364 12.1402,-7.02758 10.605,18.3193 z m -108.158,101.52245 -21.1559,0.0182 0.016,-14.02757 21.129,-0.0338 0.011,14.04326 z m 83.3526,-144.49486 -12.1673,7.01198 -10.5508,-18.28804 12.1403,-7.02758 10.5778,18.30364 z m -115.6291,-11.22468 -10.5782,18.3219 -12.1513,-7.0156 10.5781,-18.3219 12.1514,7.0156 z m -24.8125,42.97651 -10.5625,18.29479 -12.1514,-7.0156 10.5625,-18.29479 12.1514,7.0156 z"
       id="path2991-0-0-8"
       inkscape:connector-curvature="0" />
    <path
       style="color:#000000;fill:#00ff00;stroke:#000000;stroke-width:0.26509827;stroke-linecap:butt;stroke-linejoin:miter;stroke-miterlimit:4;stroke-opacity:1;stroke-dasharray:none;stroke-dashoffset:0;marker:none;visibility:visible;display:inline;overflow:visible;enable-background:accumulate"
       d="m 1609.9852,735.6864 176.9999,-306.5627 -353.9999,-7e-5 177,306.56272 z m -58.5937,-129.6562 -10.5625,-18.31255 12.1563,-7.00002 10.5624,18.28126 -12.1562,7.03131 z m 117.2187,-0.0621 -12.1562,-7.0311 10.5623,-18.31245 12.1562,6.99994 -10.5625,18.34375 z m -142,-42.90623 -10.5936,-18.31255 12.1562,-7.00002 10.5937,18.28132 -12.1563,7.03125 z m 166.8125,-0.062 -12.1563,-7.03112 10.5628,-18.28124 12.1562,6.99993 -10.5624,18.31262 z m -48.0937,-105.75014 -21.1562,-4e-5 0,-14.03122 21.1563,4e-5 -10e-5,14.03122 z m -49.625,-2e-5 -21.125,1e-5 0,-14.03122 21.125,-1e-5 0,14.03122 z"
       id="path2991-1-2-0-8"
       inkscape:connector-curvature="0" />
    <path
       style="color:#000000;fill:#00ff00;stroke:#000000;stroke-width:0.26509827;stroke-linecap:butt;stroke-linejoin:miter;stroke-miterlimit:4;stroke-opacity:1;stroke-dasharray:none;stroke-dashoffset:0;marker:none;visibility:visible;display:inline;overflow:visible;enable-background:accumulate"
       d="m 1432.1878,1052.2196 353.991,0.01 -176.9999,-306.57299 -176.9911,306.56779 z m 82.9887,-115.57176 10.5779,-18.30367 12.1403,7.02766 -10.5508,18.28793 -12.1674,-7.01192 z m 58.6631,101.48336 0.011,-14.0432 21.1402,-0.01 0.016,14.0276 -21.1674,0.024 z m -33.8421,-144.42876 10.5624,-18.3306 12.1403,7.02757 -10.5353,18.31508 -12.1674,-7.01205 z m 83.4599,144.43276 0.011,-14.0432 21.1135,0.01 0.016,14.0275 -21.1403,0.01 z m 67.5355,-94.52533 -10.578,-18.32183 12.1512,-7.01565 10.5782,18.32187 -12.1514,7.01561 z m -24.8125,-42.97652 -10.5625,-18.29478 12.1514,-7.01561 10.5625,18.29478 -12.1514,7.01561 z"
       id="path2991-1-2-0-3-2"
       inkscape:connector-curvature="0" />
    <path
       style="color:#000000;fill:#00ff00;stroke:#000000;stroke-width:0.26509827;stroke-linecap:butt;stroke-linejoin:miter;stroke-miterlimit:4;stroke-opacity:1;stroke-dasharray:none;stroke-dashoffset:0;marker:none;visibility:visible;display:inline;overflow:visible;enable-background:accumulate"
       d="m 1612.6094,112.85683 176.9999,-306.56259 -353.9998,5e-5 176.9997,306.5626 z m -58.5937,-129.656195 -10.5624,-18.312619 12.1562,-6.99993 10.5627,18.281151 -12.1563,7.031142 z m 117.2186,-0.06205 -12.1562,-7.031313 10.5626,-18.312468 12.1562,7.00002 -10.5626,18.343761 z m -141.9999,-42.906261 -10.5938,-18.31253 12.1562,-6.99993 10.5938,18.28135 -12.1563,7.03116 z m 166.8124,-0.062 -12.1562,-7.0312 10.5625,-18.28128 12.1563,7.00002 -10.5626,18.31246 z m -48.0937,-105.750074 -21.1562,4e-5 -10e-5,-14.03121 21.1564,4e-5 -10e-5,14.03113 z m -49.625,0 -21.125,-1e-5 10e-5,-14.03112 21.125,0 -10e-5,14.03113 z"
       id="path2991-8-0-3-9"
       inkscape:connector-curvature="0" />
  </g>
</svg>
